<?xml version="1.0" encoding="UTF-8" standalone="no"?>
<svg xmlns="http://www.w3.org/2000/svg" width="100" height="100">
	<rect x="0" y="0" width="100" height="100" fill="#BC3" rx="15" ry="15"/>
	<path fill="#922" d="m 50.545579,81.632467 q -6.912,0 -12.48,-2.112 -5.568,-2.112 -9.6,-6.24 -3.936,-4.128 -6.048,-10.176 -2.112,-6.144 -2.112,-14.208 0,-11.328 3.936,-18.624 4.032,-7.392 11.04,-11.04 7.008,-3.648 15.84,-3.648 6.816,0 12.384,2.112 5.568,2.112 9.504,6.24 4.032,4.128 6.144,10.368 2.208,6.144 2.208,14.208 0,8.352 -2.304,14.592 -2.208,6.144 -6.336,10.272 -4.032,4.128 -9.696,6.24 -5.664,2.016 -12.48,2.016 z m 0.48,-12.096 q 4.704,0 7.872,-2.304 3.264,-2.4 4.896,-6.816 1.728,-4.512 1.728,-10.944 0,-6.816 -1.728,-11.52 -1.728,-4.8 -5.088,-7.2 -3.264,-2.496 -8.064,-2.496 -4.608,0 -7.872,2.4 -3.168,2.304 -4.896,6.912 -1.728,4.512 -1.728,11.136 0,4.992 0.96,8.928 1.056,3.84 2.88,6.528 1.824,2.592 4.608,4.032 2.88,1.344 6.432,1.344 z" />
</svg>
