<svg xmlns="http://www.w3.org/2000/svg" width="1000" height="750">
<path fill="#922" d="M179.467 729.487c-10.601-3.698-19.271-14.904-20.448-26.427-3.388-33.168 23.575-52.961 53.339-39.155 3.817 1.77 13.205 11.627 13.803 14.492.312 1.495 1.057 4.655 1.656 7.022 7.415 29.317-19.725 54.055-48.35 44.068zm19.926-17.531c7.888-3.012 11.622-17.098 6.98-26.332-9.07-18.044-32.448-6.388-27.888 13.904 2.597 11.557 10.651 16.345 20.908 12.428zm77.723 18.787c-29.271-7.743-30.655-57.321-1.901-68.079 19.554-7.316 48.41 8.642 36.359 20.106-5.091 4.843-8.442 5.046-12.521.756-14.213-14.949-32.864 3.5-23.072 22.823 5.377 10.612 15.546 11.827 23.467 2.805 3.849-4.383 6.537-4.502 12.018-.532 5.697 4.127 5.433 6.148-1.715 13.099-9.039 8.79-21.006 12.099-32.635 9.023zm62.25-.208c-2.29-1.334-2.23-5.621.134-9.497 1.032-1.692 2.355-5.308 2.94-8.035s2.043-7.192 3.239-9.923 2.545-6.315 2.995-7.965c1.29-4.725 5.512-15.973 7.768-20.695 1.131-2.368 2.349-5.511 2.706-6.984 1.58-6.52 16.956-7.866 23.666-2.071 1.561 1.348 5.802 12.58 5.802 15.368 0 1.034 5.008 12.811 9.517 22.383.777 1.65 1.725 4.35 2.106 6s2.003 5.593 3.605 8.763c3.519 6.962 3.323 8.708-1.232 10.985-8.448 4.224-17.116 1.407-18.607-6.047l-.64-3.202h-9.441c-11.028 0-12.737.685-14.34 5.742-1.882 5.94-13.711 8.969-20.22 5.178zm38.834-26.171c.323-.323-.528-4.336-1.89-8.918s-2.764-9.587-3.115-11.122c-.828-3.622-2.176-2.717-3.025 2.03-.37 2.069-1.601 6.556-2.735 9.972-2.736 8.238 4.879 13.924 10.765 8.038zm70.017 26.146c-6.641-.969-9.121-2.344-15.402-8.535-5.183-5.11-5.084-5.85 1.369-10.138 7.312-4.86 8.493-4.924 15.147-.817 8.799 5.431 20.792 4.965 23.47-.912 1.782-3.91.367-4.52-15.228-6.567-10.116-1.328-14.846-2.384-16.339-3.647-19.403-16.417-3.596-42.527 24.176-39.933 7.285.68 23.941 8.097 23.456 10.445-.137.666.2 1.21.75 1.21 2.316 0 .72 4.02-2.889 7.281-5.567 5.029-6.836 5.17-14.169 1.571-8.443-4.144-15.873-4.92-18.827-1.966-4.826 4.826-1.801 7.126 11.482 8.731 19.697 2.38 26.404 7.165 26.404 18.839 0 19.247-16.254 28.4-43.399 24.44zm90.066-.565c-19.618-6.799-27.157-37.255-13.922-56.246 11.583-16.621 39.231-17.323 51.704-1.314 7.419 9.522-6.314 19.152-14.661 10.281-9.065-9.634-23.22-3.4-24.507 10.794-1.6 17.649 14.511 28.368 25.036 16.656 4.643-5.167 6.379-5.454 12.229-2.027 6.819 3.996 6.669 6.661-.774 13.818-9.641 9.27-22.833 12.291-35.105 8.039zm64.556.113c-2.826-1.98-2.786-3.916.189-9.118 1.313-2.296 2.706-6.063 3.096-8.37s1.844-6.729 3.232-9.825 2.884-6.98 3.323-8.63c.913-3.425 3.524-10.92 4.964-14.25l1.908-4.5c5.527-13.295 6.02-13.75 14.918-13.75 9.624 0 13.254 3.071 16.17 13.681 1.388 5.049 4.035 12.474 5.882 16.5 6.594 14.37 7.095 15.553 7.095 16.775 0 .68 1.612 4.634 3.582 8.785l3.582 7.549-2.556 2.556c-6.531 6.531-20.609 3.061-20.609-5.08v-2.942l-11.038.338c-11.843.363-12.427.626-13.621 6.124-1.2 5.524-14.301 8.232-20.118 4.157zm37.765-25.437c1.688-.903 1.736-1.335.527-4.75-2.161-6.105-4.515-14.381-4.515-15.871 0-2.487-1.946-1.455-2.573 1.365-.336 1.513-1.47 5.339-2.519 8.504-1.963 5.921-2.41 9.91-1.241 11.079 1.021 1.021 8.23.792 10.321-.327zm119.566 25.656c-2.139-1.564-1.847-4.529 1.197-12.163 1.097-2.75 2.896-7.7 3.999-11 2.831-8.47 4.302-12.547 5.775-16 .704-1.65 1.936-5.025 2.738-7.5 6.096-18.815 8.726-22 18.17-22 9.947 0 13.122 2.931 16.533 15.265 1.859 6.721 4.134 12.367 10.572 26.235.766 1.65 1.701 4.35 2.077 6s1.985 5.46 3.576 8.468c3.569 6.748 3.328 9.023-1.191 11.281-8.521 4.256-17.767 1.175-18.278-6.091l-.222-3.154-9.816-.002c-11.414-.002-13.104.657-14.715 5.74-1.937 6.114-14.608 9.168-20.416 4.921zm39.054-25.937c.31-.31-.574-4.313-1.965-8.895s-2.673-9.231-2.849-10.331c-.683-4.258-2.337-1.594-5.176 8.337-2.494 8.727-2.734 10.486-1.536 11.294 1.427.963 10.476.645 11.526-.405zm-98.587 24.799c-.915-1.102-1.135-7.797-.872-26.511.308-21.961.167-24.958-1.148-24.395-11.687 5.001-22.691-6.256-13.894-14.214 2.518-2.278 49.668-2.323 51.129-.049 4.736 7.375-.045 13.804-9.661 12.991l-7.722-.653.188 24.403c.104 13.422-.124 25.159-.506 26.083-1.48 3.579-14.988 5.388-17.513 2.345zm-157.689-74.467c-1.742-1.586-3.636-3.757-4.207-4.825s-2.633-3.85-4.582-6.182c-4.605-5.512-4.506-7.419.55-10.61 4.934-3.115 5.988-2.803 10.057 2.969l3.154 4.474 2.88-4.347c3.766-5.686 4.959-6.006 10.324-2.766 5.56 3.358 5.556 3.586-.178 11.379-10.064 13.678-12.425 14.978-17.997 9.907zm-174.832-2.703c-7.679-4.108-7.733-4.48-1.828-12.506 9.724-13.215 12.468-14.887 17.694-10.777 3.857 3.034 1.142 9.39-8.631 20.203l-4.234 4.684zm-151.638-21.187c-2.684-2.398-3.242-3.7-3.64-8.5-.554-6.686-.572-6.691-10.446-2.804-11.287 4.443-16.944 5.452-27.48 4.901-12.133-.635-13.714-2.017-11.818-10.335l.7-3.07-5.839.418c-21.295 1.523-55.883-22.057-40.778-27.8 1.684-.64 2.439-1.698 2.439-3.417 0-2.429-1.386-4.321-9.935-13.56-11.538-12.469-15.658-31.308-9.975-45.614 3.909-9.84 7.236-9.519 32.66 3.154l14.25 7.103v-3.667c0-12.182 13.441-6.871 31.857 12.589 7.467 7.89 9.112 9.163 11.298 8.745 1.692-.323 4.386.541 7.952 2.55 11.905 6.71 16.289 7.613 6.63 1.367-5.757-3.723-13.978-11.676-19.461-18.827-2.109-2.75-10.21-16.177-22.631-37.509-8.349-14.338-8.581-14.569-12.634-12.547-1.825.911-4.544 1.655-6.042 1.655s-3.27.658-3.937 1.462c-6.09 7.339-46.775 6.718-71.531-1.092-13.813-4.357-31.5-16.313-31.5-21.293 0-2.512 2.901-6.077 4.946-6.077 1.008 0 2.831-.809 4.052-1.798l2.22-1.798-5.859-4.385c-20.825-15.586-32.146-42.194-16.9-39.72 3.403.552 5.59-.533 3.578-1.777-7.374-4.557-15.186-30.912-10.622-35.837 2.239-2.416 3.885-3.125 9.078-3.91 4.269-.645 4.888-4.987 2.074-14.552-4.939-16.788-.242-30.588 8.981-26.385 8.959 4.082 14.114-1.222 16.941-17.429 3.071-17.61 5.239-20.825 11.586-17.183 4.014 2.304 5.961.429 10.259-9.879 7.284-17.47 26.31-35.112 34.709-32.184 3.08 1.074 3.204 1.468 7.472 23.741 3.819 19.93 19.888 32.581 26.924 21.197 2.57-4.158 9.115.535 8.597 6.163-1.328 14.417.595 23.304 4.825 22.299 10.815-2.569 15.439-1.488 17.799 4.16l1.561 3.737 1.893-3.689c1.041-2.029 3.721-10.079 5.956-17.89 9.72-33.969 34.83-60.699 57.182-60.87 2.144-.016 2.208-.698.25-2.656-11.389-11.389 15.029-20.752 43.5-15.416 50.156 9.4 60.746 13.081 76.25 26.503 4.813 4.166 8.75 7.165 8.75 6.664 0-2.704 21.361-11.526 31.847-13.153 18.943-2.939 36.358 6.528 50.386 27.391 16.326 24.28 18.224 36.604 9.506 61.732-11.965 34.486-7.848 60.687 14.654 93.256 7.481 10.828 7.486 10.833 8.047 7.5 3.849-22.871 3.376-61.19-1.129-91.334-4.102-27.451-2.532-38.522 8.883-62.638 16.607-35.085 7.052-50.878-40.693-67.254-42.19-14.471-64.596-39.559-29.94-33.524 10.227 1.781 11.311 1.258 7.438-3.584-16.665-20.833-19.502-60.47-6.625-92.574 3.772-9.405 9.636-20.039 10.69-19.388.503.311.694-.021.424-.737-.592-1.571 12.139-17.702 20.785-26.334 13.069-13.049 38.263-30.238 45.369-30.954 32.388-3.265 46.182 1.767 70.428 25.692 29.157 28.772 41.928 50.895 46.018 79.718 3.212 22.641-3.551 49.521-16.445 65.35-3.739 4.591-4.398 6.13-4.97 11.603-2.119 20.273-11.117 26.572-38.171 26.726-25.638.145-34.355 3.258-39.928 14.257-1.359 2.683-3.8 6.131-5.423 7.663-2.874 2.713-2.916 2.887-1.579 6.677 4.19 11.874 2.437 22.117-7.159 41.832-10.122 20.796-11.112 28.29-7.459 56.469 5.285 40.765 5.29 63.285.024 101.242-2.268 16.35-2.408 21.116-.873 29.926 1.37 7.869 2.459 8.07 3.151.582 1.116-12.081 6.451-22.048 21.276-39.75 12.427-14.839 16.422-25.968 12.264-34.166l-10.579-20.361c-22.537-43.212-8.526-63.338 33.147-47.617l8.861 3.343 8.639-8.917c4.751-4.904 9.764-10.807 11.139-13.117 9.139-15.354 18.826-23.523 37.597-31.707 17.383-7.579 17.73 3.136.941 29.09-3.118 4.82-4.319 7.511-3.613 8.095.582.481.836.57.564.198-.67-.919 5.317-4.224 15.531-8.575 63.2-26.923 126.329-10.369 150.234 39.397 4.489 9.344 7.511 21.337 19.004 75.405 3.167 14.897-.953 20.422-15.244 20.444-11.578.018-34.94 1.96-59.516 4.948-74.772 9.092-114.632 3.614-135.204-18.584l-2.246-2.423-.606 2.774c-3.275 14.984-10.649 17.755-16.484 6.195-9.029-17.886-11.355-44.806-5.479-63.421 4.615-14.62 4.565-15.788-.782-18.301-4.853-2.281-8.699-6.387-8.699-9.287 0-1.182-1.137-2.163-3.25-2.805-1.788-.543-6.308-2.139-10.045-3.547-11.744-4.425-22.641-2.648-24.3 3.963-1.49 5.937-.331 8.821 16.632 41.383l6.463 12.406v8.647c0 11.242-3.725 19.128-16.077 34.04-17.267 20.844-18.381 23.626-19.532 48.749-.896 19.553-2.437 31.085-6.423 48.064l-3.018 12.98c-3.506 15.785 6.578 19.596 52.051 19.67l22 .036-.3-2.827c-.174-1.642.712-4.577 2.113-7 4.327-7.485 8.293-19.678 5.487-16.873-4.866 4.866-20.084-6.309-28.038-20.589-5.383-9.663-4.341-15.211 2.855-15.211 2.098 0 2.171-.37 2.13-10.75-.061-15.51 2.708-20.826 10.447-20.058 2.885.286 3.214-.015 4.585-4.192 3.196-9.74 9.206-14.053 22.426-16.094 4.012-.62 8.51-1.752 9.995-2.516 4.113-2.116 8.369-1.749 10.477.904 1.166 1.467 3.817 2.737 7.358 3.524 10.425 2.316 14.129 8.863 10.427 18.432-.567 1.466-.098 1.75 2.891 1.75 3.933 0 7.299 2.769 8.322 6.845.707 2.818-2.799 11.769-4.472 11.417-.622-.131-.907.347-.633 1.061s-1.103 2.948-3.06 4.963l-3.558 3.664 2.39.6c1.314.33 4.248.099 6.52-.512 21.489-5.786 6.193 19.987-21.362 35.994-12.644 7.345-13.891 8.113-18.411 11.331l-4.02 2.862-3.26-1.904-3.26-1.904-3.274 7.532-3.274 7.686c0 .332 8.846-1.83 15.311-3.741 14.564-4.306 26.525-11.341 45.689-26.872 32.525-26.36 59.146-37.724 116-49.515 58.925-12.22 81.103-22.224 99.129-44.713l2.972-3.708-5.259-2.665c-14.364-7.279-31.372-26.024-29.361-32.361 1.074-3.383 3.158-2.368 6.554 3.191 9.416 15.414 28.115 29.854 31.996 24.708 2.166-2.872 5.628-12.904 6.788-19.672l.894-5.213-3.947-2.735c-13.663-9.469-30.32-36.111-23.215-37.131 1.61-.231 2.545.797 4.343 4.774 5.71 12.634 22.22 31.451 23.478 26.759 2.093-7.809.683-19.858-2.801-23.928-8.785-10.264-13.597-31.812-7.103-31.812 1.645 0 2.144 1.522 3.02 9.229.74 6.508 6.334 18.891 7.519 16.646.399-.756 1.016-5.2 1.37-9.875s1.28-11.485 2.057-15.133c1.059-4.972 1.152-7.659.374-10.727-1.23-4.847-.579-7.14 2.027-7.14 1.458 0 2.551-1.797 4.716-7.75 6.976-19.18 17.809-37.25 22.331-37.25 6.725 0 7.496 4.527 2.244 13.171-9.845 16.205-23.956 53.829-20.189 53.829 3.673 0 15.05-9.713 20.204-17.25 4.287-6.269 7.858-7.78 7.858-3.327 0 6.77-20.301 25.535-27.66 25.567-2.483.011-2.523.355-4.27 37.509-.717 15.251-1.547 23.167-3.03 28.915-1.124 4.353-1.819 8.139-1.546 8.412 2.169 2.169 27.213-7.654 38.35-15.043 7.378-4.895 10.155-5.207 10.155-1.142 0 4.744-28.766 18.406-45.395 21.561-6.633 1.258-6.889 1.42-9.188 5.796-1.301 2.476-3.954 6.583-5.895 9.128l-3.53 4.627 2.755 1.1c25.411 10.146 63.881 3.134 77.279-14.087l5.537-7.028c.791-.969 1.439-2.233 1.439-2.809s.445-.773.989-.437c.552.341.743-.03.432-.84-.306-.798-.076-1.748.511-2.111 1.709-1.056 1.232-3.541-.682-3.552-12.347-.069-17.967-10.649-8.952-16.851 10.939-7.526 24.702-27.164 24.702-35.247 0-.35-3.595-.844-7.988-1.098-11.584-.671-13.543-2.818-10.51-11.522 3.656-10.495 8.363-33.741 7.09-35.014-.244-.244-2.981.294-6.082 1.196-8.793 2.556-10.638 1.14-11.01-8.454-.096-2.475-1.809-9.232-3.807-15.016-4.421-12.799-5.931-22.674-5.062-33.099l.657-7.876-3.893 1.988c-2.141 1.093-9.572 4.691-16.513 7.994-19.724 9.388-29.956 19.853-35.466 36.275-3.769 11.231-7.983 12.642-14.076 4.714l-3.156-4.106-2.933 4.313c-10.23 15.043-14.823 28.045-13.956 39.508.683 9.028-5.27 16.005-8.793 10.305-3.228-5.223-5.764 6.752-5.37 25.358.341 16.11-1.051 17.736-12.474 14.564-14.106-3.917 4.949 32.171 21.69 41.078 7.724 4.109 9.652 6.766 7.639 10.527-6.161 11.512-34.467-13.045-42.451-36.83-7.477-22.275-3.984-30.826 11.062-27.08 2.004.499 2.124.047 2.723-10.298 1.07-18.489 6.377-34.909 11.621-35.958 2.432-.486 2.895-1.287 4.419-7.64 5.737-23.903 23.924-46.962 31.33-39.721l3.07 3.001 2.788-5.511c8.054-15.918 19.229-24.987 45.51-36.932 6.357-2.889 14.128-6.897 17.269-8.907 11.603-7.422 14.726-4.53 12.182 11.283-2.476 15.389-1.786 24.66 2.869 38.544 2.025 6.039 3.768 12.028 3.874 13.308.153 1.844.613 2.198 2.22 1.705 16.952-5.203 20.371 9.874 10.005 44.119-.603 1.992-.181 2.154 7.34 2.81 10.671.931 11.725 2.043 10.166 10.724-2.425 13.496-9.61 26.959-20.295 38.029-4.713 4.883-4.561 5.824.943 5.824 4.234 0 8.369 2.75 8.369 5.566 0 2.61-3.556 10.476-5.22 11.546-.523.337-.8.822-.616 1.079 2.399 3.34-19.055 26.234-29.164 31.121-18.209 8.803-57.234 9.213-74.276.782l-4.154-2.056-2.535 2.393c-16.03 15.132-41.406 24.812-93.035 35.489-44.721 9.249-69.274 18.308-94.322 34.801-10.91 7.184-11.475 8.321-2.955 5.949 11.675-3.251 27.102-5.104 55.488-6.663l16.711-.918 8.289-8.36c18.937-19.099 39.156-29.488 55.414-28.473 6.52.407 8.577.206 9.52-.931 10.693-12.885 60.821-24.103 56.417-12.626-.296.772-.107 1.137.42.811 1.588-.982 2.365 4.452 1.186 8.295-1.622 5.284 5.098 5.176 21.554-.348 15.604-5.238 19.028 1.29 7.292 13.901-10.763 11.565-9.383 17.009 5.487 21.647 22.736 7.092-6.198 23.995-41.073 23.995h-13.398l2.108 5.25c5.463 13.603 3.722 15.495-15.138 16.459-9.266.473-17.195-.212-27.25-2.356-3.651-.779-3.468.448.814 5.451 11.816 13.804-10.96 19.524-31.564 7.927-8.351-4.7-25.514-16.298-34.75-23.481-8.803-6.846-9.727-8.696-6.586-13.182l1.665-2.376-13.915.698c-32.692 1.641-50.074 4.116-65.524 9.329-7.926 2.675-12.891 2.583-12.891-.239 0-2.132-.128-2.071-9.284 4.479-31.647 22.637-75.943 29.418-130.314 19.95-5.222-.909-7.456-.882-10.525.131-3.719 1.227-4.092 1.144-8.239-1.834-13.045-9.368-25.202-10.38-45.362-3.774-35.592 11.663-55.8 10.488-89.275-5.188l-15-7.016c-12.892-6.02-17.822-7.651-15.2-5.029 1.572 1.572 1.541 6.282-.05 7.559-.687.552-6.2 1.213-12.25 1.468-11.86.501-11.924.521-43.362 13.282-6.249 2.537-14.895 5.321-19.213 6.187l-7.851 1.575 2.577 2.027c4.751 3.737-.016 18.332-9.393 28.762-7.719 8.586-13.731 10.169-19.395 5.109zm14.107-17.242c2.073-3.208 4.276-7.844 4.895-10.303s1.809-5.154 2.643-5.988c1.357-1.357-.206-1.461-14.745-.983l-16.263.535-4.78 4.864c-2.959 3.011-5.34 4.649-6.25 4.3-2.077-.797-1.823-3.72.506-5.829 4.167-3.771-1.456-4.848-7.967-1.526-5.933 3.027-12.912 5.183-14.2 4.387-.808-.5-.903-.142-.318 1.203.457 1.053 1.035 3.64 1.283 5.749l.451 3.835 6.137-.703c3.375-.387 10.412-2.26 15.637-4.162 15.992-5.822 24.635-3.342 26.484 7.598.839 4.963 1.572 4.627 6.486-2.976zm-56.707-13.82c.293-1.121 1.769-2.174 3.617-2.579 9.185-2.017-6.218-6.104-16.496-4.377-5.488.922-7.681.951-8.519.113-1.767-1.767-.299-4.008 3.117-4.759 4.531-.995 2.273-3.084-4.248-3.93-11.079-1.436-16.229-4.067-13.768-7.032.824-.993 2.217-1.265 4.372-.852 4.714.903-7.611-11.922-16.116-16.77-8.978-5.117-11.184-10.384-3.545-8.467 2.878.722 2.901.164.149-3.7-3.38-4.747-3.117-10.802.547-12.584l2.872-1.397-2.872-1.352c-14.297-6.732-14.679-6.618-14.081 4.219.485 8.786 4.48 17.584 11.198 24.665 2.508 2.643 4.254 5.3 3.88 5.905-.4.648-.221.815.438.409 3.639-2.249 7.53 10.347 5.861 18.974l-.792 4.093 8.691 4.407c8.595 4.359 8.808 4.408 19.381 4.506 5.883.055 11.559.603 12.621 1.22 2.667 1.548 3.124 1.46 3.692-.713zm624.251-16.728c-.832-1.992-1.513-5.789-1.513-8.437v-4.815l-6.25-3.099c-8.095-4.013-15.75-9.636-15.75-11.568 0-2.976 3.094-2.68 8.334.8 7.917 5.257 13.247 7.741 16.606 7.741 1.661 0 4.716.655 6.79 1.456 9.727 3.757 33.58 6.567 35.916 4.232.279-.279-.878-3.66-2.569-7.515s-3.097-7.833-3.123-8.841c-.026-1.035-2.225-3.355-5.055-5.332-6.27-4.382-7.828-6.847-5.433-8.598 1.47-1.075 2.539-.623 7.377 3.116l5.658 4.373 13 1.167c14.091 1.265 26.179.698 35.194-1.65 7.405-1.929 7.359-1.814 2.444-6.021-7.513-6.431-9.569-13.541-6.64-22.966.628-2.022.457-2.056-6.176-1.204-8.056 1.035-14.774.373-18.058-1.779-2.254-1.477-2.696-1.333-9.315 3.027-8.993 5.925-8.816 6.332 2.801 6.436 20.527.184 26.25 1.721 26.25 7.051 0 5.058-2.289 6.3-9.886 5.363-22.711-2.799-41.69-.846-70.153 7.217-18.557 5.257-31.102 7.797-44.733 9.058-9.829.909-9.816.948 3.541 10.886 26.337 19.595 44.278 28.359 40.745 19.902zm28.61-18.956c-12.104-3.255-28.852-14.634-26.216-17.811 1.663-2.004 3.478-2.056 5.063-.147 4.218 5.082 22.535 13.873 27.731 13.31 3.604-.391 5.515 2.81 2.857 4.784-2.314 1.718-2.553 1.715-9.435-.136zm-618.457 20.078c0-.825-.219-1.281-.487-1.013-.904.904-6.335-7.442-5.994-9.212.659-3.421 3.521-2.444 7.102 2.424 6.399 8.699 7.289 9.21 14.963 8.58 3.713-.305 6.75-.857 6.75-1.228 0-2.992-10.571-9.971-21.457-14.165-4.424-1.705-9.33-3.763-10.902-4.575-2.695-1.391-3.014-1.327-5.555 1.106-1.563 1.498-3.851 2.582-5.447 2.582h-2.752l1.807 3.076c6.359 10.828 21.973 19.657 21.973 12.424zm-19.065-.75c.396-.687.38-.945-.035-.572-1.623 1.457-11.696-12.792-13.138-18.583-.55-2.209-.295-3.219 1.064-4.212 2.443-1.787.754-4.312-10.294-15.382l-8.482-8.5-1.912 4.475c-3.136 7.337-5.018 7.648-13.769 2.275-7.427-4.559-12.417-7.166-12.876-6.727-.452.433 6.37 12.101 9.492 16.233 1.353 1.791 2.141 3.773 1.75 4.405-.422.683-.27.877.376.478.597-.369 1.382-.192 1.744.394.46.745 1.068.725 2.021-.066 2.578-2.14 4.921-.072 7.752 6.842 2.515 6.142 3.353 7.164 8.414 10.257 8.836 5.4 9.587 5.474 6.325.625-5.5-8.174-9.573-17.55-8.215-18.908 1.868-1.868 3.872-.095 7.588 6.718 10.338 18.951 18.604 26.492 22.196 20.25zm65.95-3.108c4.372-1.297 13.176-4.657 19.566-7.467 18.611-8.185 26.103-10.376 36.032-10.536 9.892-.16 10.329-.713 2.147-2.719-8.364-2.05-28.083-1.686-44.797.827-23.988 3.608-32.862 3.743-46.5.708-1.479-.329-.594.476 2.17 1.972 6.079 3.292 16.24 12.733 17.827 16.564 1.534 3.704 3.019 3.775 13.554.65zm136.949-4.877c-7.851-5.682-19.174-18.866-17.931-20.877.472-.763.316-.935-.43-.475-.765.473-2.115-1.38-3.905-5.36l-2.734-6.084-13-.287c-23.74-.524-35.362-5.379-34.144-14.263l.606-4.42h-3.821c-10.095 0-35.342-9.678-37.019-14.19-1.217-3.275-.501-4.754 4.593-9.486l4.495-4.176-4.15-2.117c-20.695-10.558-23.388-24.669-5.141-26.945 11.633-1.451 11.45-1.33 10.768-7.088-.702-5.929 1.129-8.998 5.371-8.998 1.619 0 2.943-.113 2.943-.25s-.877-2.557-1.949-5.377-2.262-7.545-2.644-10.5-1.305-6.26-2.051-7.345c-2.029-2.952-1.652-5.149 1.279-7.455 3.626-2.852 3.81-2.789 10.203 3.488 13.477 13.234 18.945 15.309 22.175 8.412 3.459-7.385 8.602-8.178 12.749-1.966 4.671 6.995 23.173 22.993 26.593 22.993.29 0 2.606-2.7 5.145-6 8.936-11.613 17.147-3.188 23.662 24.277l2.319 9.777 3.01-.64c1.655-.352 4.81-1.301 7.01-2.109 10.274-3.772 12.5-2.041 12.5 9.724 0 22.647-15.078 48.404-33.224 56.757-4.665 2.147-4.777 1.511 1.703 9.642 5.662 7.106 13.013 13.275 20 16.785 4.969 2.496 7.644 4.779 6.939 5.921-1.618 2.618 16.255-1.344 30.583-6.78 7.337-2.783 22.316-3.674 36.449-2.168 6.572.701 9.332-31.606 4.7-55.022-1.355-6.851-2.599-18.325-3.144-29-1.162-22.777-1.998-25.462-13.022-41.828-24.812-36.833-29.622-68.263-16.101-105.202 6.719-18.356 6.416-23.902-2.21-40.367-16.615-31.717-34.861-39.187-64.114-26.25-8.088 3.577-6.175 4.632 19.674 10.85 22.786 5.482 33.043 15.154 37.256 35.133 3.787 17.96-.749 23.074-12.152 13.702-8.477-6.967-16.193-12.25-16.682-11.422-.234.396-.754 2.744-1.156 5.219-2.658 16.355-16.423 45.383-25.286 53.325-3.579 3.207-7.333 1.881-10.311-3.641l-2.597-4.816-5.219 6.433c-15.226 18.766-27.85 25.189-56.56 28.774-20.363 2.543-35.541 5.542-68.027 13.442l-33.558 7.961-7.558 1.638-5.155 9.914-5.155 9.914 4.141 1.115c4.623 1.245 11.208.556 17.057-1.784 7.716-3.087 12.126 2.509 7.487 9.503-10.552 15.908-29.575 27.301-46.512 27.856-9.777.321-9.237-.159-5.855 5.198 1.504 2.382 5.229 8.907 8.279 14.5 24.679 45.257 41.271 53.644 90.719 45.857 32.93-5.186 47.544-2.586 84.608 15.049 21.848 10.396 46.336 17.924 37.5 11.528zm206.757-22.79c1.195-1.113 2.746-1.805 3.446-1.536s1.166.03 1.035-.531 4.992-4.077 11.385-7.815c19.492-11.396 22.332-14.278 15.951-16.19-11.439-3.427-12.829-9.932-4.085-19.115 7.164-7.524 7.082-7.088 1.614-8.55-7.854-2.101-9.718-7.171-5.603-15.239 2.503-4.906 2.497-5-.322-5-1.277 0-4.438-.721-7.024-1.602-5.419-1.847-6.361-1.406-10.29 4.818-3.32 5.259-2.942 6.462 1.069 3.403 3.916-2.987 4.865-3.17 6.462-1.245 1.863 2.245.36 4.139-6.449 8.121-3.695 2.161-6.451 4.46-6.457 5.388-.006.89-.29 3.306-.631 5.368-.888 5.375 1.25 4.933 8.469-1.75 6.145-5.689 8.773-6.707 9.879-3.825.78 2.032-8.725 11.274-14.76 14.353-3.666 1.87-5.053 4.531-3.283 6.301.364.364 3.542-.948 7.062-2.917 6.593-3.687 9.276-3.861 9.276-.602 0 1.751-4.12 4.564-13.465 9.194-3.018 1.495-4.411 5.27-3.154 8.545.791 2.061 8.256-.96 16.898-6.839 1.841-1.253 3.67.201 3.706 2.946.023 1.716-8.561 7.082-15.202 9.504-4.132 1.506-5.953 2.731-6.291 4.23-3.22 14.277-3.218 14.296.765 10.586zm-16.005-15.352c-2.073-2.268-5.257-6.457-7.074-9.31-3.268-5.13-3.326-5.165-5.241-3.25-1.065 1.065-2.611 1.937-3.437 1.937-4.286 0 2.774 9.281 11.123 14.622 2.878 1.841 5.569 4.366 5.981 5.612.666 2.014.842 1.836 1.583-1.611.775-3.603.568-4.167-2.936-8zm186.819 1.158l7.108-1.219 2.737-6.036c1.505-3.32 3.522-6.821 4.482-7.781 3.196-3.196-.721-1.982-7.276 2.255-3.404 2.2-6.355 4-6.559 4s-1.876 1.316-3.716 2.924l-5.846 4.967c-3.161 2.583-1.658 2.731 9.071.891zm-386.775-5.868c12.189-7.5 22.669-24.56 23.903-38.913.233-2.706-.039-3.413-1.199-3.116-13.93 3.566-20.429.993-21.399-8.471-.666-6.503-5.023-22.099-6.654-23.819-.502-.529-2.544.616-4.906 2.75-2.266 2.048-5.093 3.656-6.424 3.656h-2.377l.516 10.88c.315 6.656.039 13.408-.713 17.392-1.228 6.51-.268 11.603 1.931 10.244 2.169-1.341 4.454-11.685 4.974-22.516.521-10.855.674-11.517 2.732-11.81 5.743-.818 3.168 28.831-3.325 38.283-2.937 4.275 1.689 18.427 4.776 14.614 2.756-3.404 5.617-12.042 6.797-20.522 1.2-8.624 1.555-9.564 3.612-9.564 5.607 0 .372 26.141-6.925 34.582-6.14 7.102-3.149 11.148 4.68 6.331zm413.38-.918c6.682-1.854 8.279-2.68 8.741-4.52.311-1.239 2.144-3.638 4.074-5.333 3.971-3.486 4.245-4.136 1.759-4.157-.962-.008-3.55-.643-5.75-1.411-3.726-1.3-4.05-1.264-4.723.53-.398 1.059-1.973 2.398-3.5 2.975-3.742 1.414-8.049 5.622-10.368 10.132-2.352 4.573-2.372 5.152-.158 4.538l9.926-2.753zm-210.126-4.311c-9.416-12.8-13.561-26.184-8.109-26.184 1.486 0 2.325 1.287 3.583 5.5 1.533 5.134 4.602 12 5.363 12 1.002 0-.145-20.227-1.378-24.304-1.496-4.947-.49-7.396 2.581-6.278 1.345.49 5.577-9.196 4.35-9.955-1.986-1.227-5.79 2.86-7.804 8.384-2.433 6.672-5.623 10.092-10.321 11.065l-3.315.687.026 6.95c.034 9.153.904 12.09 3.794 12.816 1.285.323 2.902 1.825 3.592 3.339 2.837 6.226 8.563 12.945 8.917 10.464.181-1.265-.395-3.283-1.278-4.484zm-224.127 3.441c.297-.481-.129-2.844-.948-5.25l-1.489-4.375-5.569.347c-8.632.538-12.608-.488-12.229-3.154.286-2.011.953-2.217 8.029-2.485l7.717-.291-2.179-4.484c-1.612-3.318-2.579-4.302-3.717-3.783-6.565 2.994-36.005.15-38.052-3.676-1.834-3.426 1.235-4.412 8.263-2.656 12.156 3.038 27.751 3.372 27.751.596 0-2.742-4.589-7.939-6.5-7.361-11.99 3.626-40.5-2.45-40.5-8.631 0-3.088 2.232-3.236 8.299-.553 11.327 5.009 25.759 6.996 28.763 3.96 2.529-2.557-8.374-10.612-16.203-11.971-12.671-2.199-19.859-5.049-19.859-7.874 0-2.26 2.657-2.382 8.983-.413 8.883 2.765 9.053 2.489 1.805-2.93-3.574-2.672-7.913-6.338-9.643-8.148l-3.145-3.291v6.247c0 10.958-6.384 17.924-15.457 16.865-7.61-.888.633 5.76 10.769 8.685 9.335 2.694 9.609 6.313 1.204 15.931-4.507 5.158 4.827 9.198 24.082 10.425 13.376.852 15.96 3.296 11.861 11.222-2.029 3.923-1.564 4.432 5.262 5.759l7.779 1.527c3.914.789 14.391.621 14.923-.24zm458.278-5.063c2.64-.516 6.937-1.219 9.549-1.561 2.644-.347 4.754-1.15 4.759-1.812.012-1.524 4.096-4.731 14.178-11.132 6.371-4.045 8.374-5.905 9.56-8.879 2.025-5.076 1.721-5.172-8.416-2.651-15.257 3.794-29.858 10.848-27.447 13.259 1.253 1.253 1.519 4.704.365 4.735-.413.011-3 2.019-5.75 4.462-5.387 4.784-5.026 5.188 3.201 3.58zm-461.118-39.812c.402-3.179.248-9.102-.345-13.248-.659-4.611-.716-7.927-.147-8.612.622-.75-.357-1.963-2.996-3.709l-3.921-2.595.163 13.232c.149 12.072.36 13.482 2.413 16.092 1.238 1.573 2.25 3.249 2.25 3.725 0 3.509 2-.273 2.583-4.885zm-230.858-7.155c3.631-.703 11.933-6.51 13.058-9.133.156-.363-1.458-2.416-3.586-4.561-21.449-21.626-31.867-34.021-38.813-46.178-3.379-5.915-5.263-7.991-10.06-11.092-17.26-11.156-37.872-47.021-28.984-50.432 2.33-.894 3.381.619 5.077 7.3 3.365 13.261 11.908 27.091 21.21 34.338 5.52 4.301 5.673 4.268 4.171-.894-.631-2.169-1.181-9.679-1.223-16.688-.074-12.431-.13-12.745-2.271-12.75-7.845-.019-21.963-37.895-15.976-42.863 2.381-1.976 3.417-.692 4.123 5.109 1.588 13.032 4.427 21.092 10.202 28.958 4.337 5.908 3.862 6.349 6.222-5.761l2.62-12.617c.581-2.277.337-2.718-1.657-3-5.596-.792-13.665-24.331-8.341-24.331 1.585 0 2.445 1.393 4.163 6.741 2.692 8.379 6.314 14.559 7.394 12.618 2.348-4.219 5.16-27.752 4.576-38.295-.668-12.061.212-14.565 5.118-14.565 2.449 0 2.693-4.892.611-12.25-1.167-4.125-11.969 6.495-16.454 16.176-6.717 14.5-8.02 16.626-11.836 19.324-2.187 1.546-5.223 2.75-6.935 2.75-2.748 0-3.102.366-3.631 3.75-3.127 20.004-10.56 30.01-23.065 31.047-6.347.526-6.349.532-3.44 10.703 4.395 15.367.906 25.499-9.791 28.44-4.336 1.192 1.09 14.99 10.246 26.053 6.641 8.025 5.384 12.178-4.59 15.166-4.351 1.304-4.599 1.893-2.115 5.023 6.111 7.699 13.507 14.397 19.941 18.057 9.419 5.359 9.732 9.951 1.297 19.005-8.331 8.942 45.976 20.03 72.738 14.851zm-23.65-18.165c-20.646-4.132-51.667-24.803-42.501-28.32 1.153-.442 3.181.758 6.459 3.825 12.817 11.989 29.368 18.826 49.277 20.358 8.287.638 9.189.903 9.189 2.707 0 2.294-13.731 3.17-22.425 1.43zm-3.867-21.956c-23.654-8.405-59.869-42.505-51.065-48.083 2.261-1.432 2.593-1.149 7.449 6.36 11.196 17.311 38.122 37.75 49.731 37.75 1.749 0 2.84 2.41 2.038 4.5-.717 1.869-1.566 1.814-8.154-.526zm245.589 26.527c-.163-6.325-.541-11.5-.839-11.5s-3.223-2.441-6.5-5.424l-5.958-5.423-1.409 2.673c-3.213 6.094-5.25 6.322-14.951 1.673-8.874-4.253-8.649-4.243-6.013-.25 2.205 3.341 4.803 5.549 15.626 13.282 7.917 5.657 8.025 5.626 4.309-1.234-3.166-5.845-2.722-9.274 1.01-7.813 2.911 1.139 8.928 13.576 8.928 18.453 0 1.46 4.432 7.062 5.587 7.062.279 0 .373-5.175.21-11.5zm-163.549 6.022c9.433-1.541 24.535-11.523 17.434-11.523-14.341 0-21.996-8.243-16.571-17.844l5.043-8.937c1.016-1.804 1.846-3.492 1.846-3.75s-3.713-.474-8.25-.48c-8.319-.011-16.211-1.751-20.404-4.498-2.776-1.819-4.327-1.904-4.403-.241-.189 4.137-13.093 21.06-15.679 20.562-3.044-.586-2.451-3.222 2.021-8.981 2.392-3.08 5.598-8.015 7.126-10.966l2.777-5.365-3.731-6.229-3.731-6.229-2.953 4.729c-3.916 6.27-14.744 17.229-17.024 17.229-4.138 0-3.02-3.176 3.462-9.834 10.383-10.666 14.139-17.763 15.903-30.052 1.743-12.138 7.209-22.329 20.519-38.254l7.221-8.64-3.087-.617c-1.698-.34-3.664-1.441-4.369-2.447-1.059-1.511-2.255-1.749-6.873-1.366-8.841.733-16.523-9.554-16.523-22.128 0-3.564-.1-3.662-3.75-3.668-7.864-.012-20.935-6.584-20.613-10.364.075-.885-.266-1.36-.759-1.055s-1.68-.822-2.637-2.504c-2.659-4.672-3.046-3.861-3.156 6.615-.089 8.481-4.359 34.653-6.612 40.523-2.118 5.519 7.106-1.864 17.763-14.219 4.729-5.482 9.807-5.559 6.797-.103-3.54 6.417-18.837 20.946-24.2 22.985-4.402 1.673-7.012 29.162-3.906 41.127 4.73 18.22 11.105 27.463 38.599 55.961 7.715 7.997 14.944 15.824 16.065 17.395 1.843 2.582 2.8 2.929 9.973 3.619 7.897.759 9.54.715 16.683-.452zm-71.581-66.189c-1.618-1.618-.257-3.302 5.583-6.904 10.681-6.588 18.76-16.036 23.233-27.171 3.779-9.408 3.999-9.758 6.126-9.758 6.267 0-2.563 20.067-14.014 31.849-7.705 7.928-18.693 14.22-20.928 11.985zm-7.111-24.243c-1.067-1.726.522-3.6 5.587-6.59 8.293-4.895 16.656-15.235 23.85-29.485 3.062-6.067 4.778-7.201 6.944-4.591 1.888 2.275-9.542 22.047-17.854 30.886-6.985 7.427-16.784 12.6-18.527 9.781zm619.944 67.055c31.429-3.975 44.585-5.138 58.191-5.142 13.54-.004 13.014.732 9.813-13.743-15.432-69.776-15.526-70.039-30.596-85.736-9.493-9.889-30.159-22.315-34.597-20.803-.654.223-2.229-.254-3.5-1.059-12.198-7.725-51.383-4.907-78.287 5.63l-8.024 3.142 7.494.848c20.998 2.377 9.938 20.295-18.071 29.277-4.633 1.485-8.605 2.862-8.829 3.06s2.871 3.626 6.877 7.62 10.33 11.536 14.056 16.761 8.224 10.965 9.998 12.756c3.444 3.478 4.143 7.132 1.884 9.854-2.003 2.413-7.521 1.393-30.255-5.594-28.557-8.776-29.507-8.599-28.215 5.271 3.238 34.772 50.144 48.219 132.062 37.857zm-34.5-4.177c-14.259-2.714-15-2.988-15-5.54 0-2.901.637-2.955 11.5-.963l13 2.26c4.059.644 5 1.168 5 2.784 0 2.319-6.532 2.976-14.5 1.459zm63.795-10.715c-2.508-3.022 1.005-4.253 12.136-4.253 11.1 0 14.738 1.092 13.592 4.079-.774 2.016-24.069 2.173-25.728.174zm-130.302-10.165c-7.223-3.609-13.855-9.982-12.921-12.416.891-2.322 4.021-2.091 5.784.427 2.183 3.117 7.654 6.537 13.536 8.461 4.323 1.414 5.161 2.066 4.91 3.823-.46 3.224-4.479 3.119-11.309-.294zm85.83.215c-2.854-.555-4.704-2.867-3.924-4.9.498-1.297 1.373-1.471 4.362-.871 2.057.413 6.664 1.025 10.24 1.359 5.76.539 6.536.864 6.819 2.858.319 2.247-9.472 3.116-17.497 1.554zm-39.323-21.804c-2.811-3.387.405-4.5 13-4.5 9.229 0 12.023.322 13 1.5 2.811 3.387-.406 4.5-13 4.5-9.229 0-12.023-.322-13-1.5zm50.574-12.216c-3.259-2.013-9.559-4.876-14-6.362-10.314-3.453-12.687-7.687-3.713-6.624 9.606 1.138 26.497 10.241 25.944 13.982-.465 3.144-1.787 2.984-8.231-.995zm37.587-2.71c-2.901-2.985-7.945-7.147-11.209-9.25-5.882-3.789-7.555-6.771-4.464-7.957 3.105-1.191 20.323 11.513 18.845 13.904-.353.571-.163.743.421.382 1.457-.901 6.298 5.047 5.597 6.875-1.046 2.726-3.885 1.505-9.19-3.954zm-107.161-8.256c-7.856-1.82-10.188-3.558-7.877-5.87 2.929-2.929 20.556 2.618 19.237 6.054-.697 1.816-2.877 1.781-11.361-.184zm32.5-17.158c-7.214-2.836-9.686-6.275-4.994-6.947 3.591-.515 15.994 5.198 15.994 7.366 0 2.831-3.027 2.716-11-.419zm64.5-14.848c-7.604-6.766-9.132-9.578-5.486-10.1 4.139-.593 17.598 12.744 15.46 15.32-1.747 2.105-1.734 2.113-9.974-5.219zm-36.5-1.51c-9.657-8.241-17.488-10.861-36-12.045-3.248-.208-4-.632-4-2.256 0-2.702 13.225-3.303 22.965-1.044 10.409 2.414 27.753 14.928 26.221 18.919-.993 2.587-2.784 1.89-9.187-3.573zm-510.765 71.203c6.097-1.098 23.163-4.943 37.925-8.545 39.608-9.665 54.202-12.512 76.84-14.994 22.997-2.521 39.324-12.379 52.285-31.568l3.109-4.603-2.697-8.144c-3.201-9.667-2.853-9.549-7.009-2.37-4.49 7.754-10.75 14.602-12.674 13.864-2.519-.967-1.735-3.529 2.898-9.478 2.427-3.116 6.068-8.703 8.092-12.416l3.68-6.751-1.71-9.499c-1.612-8.955-2.511-10.867-3.986-8.48-3.805 6.157-29.97 12.855-43.088 11.03-29.764-4.14-48.626-27.435-23.9-29.518 13.59-1.145 41.757-7.608 40.152-9.213-3.509-3.509-15.639-6.782-22.652-6.111-8.921.853-10.243.522-9.82-2.453.256-1.801 1.057-2.316 3.984-2.56 2.106-.175 3.908-.942 4.239-1.802.316-.823.146-1.232-.377-.909s-2.702-.517-4.841-1.867c-21.525-13.588-22.739-13.859-43.376-9.679-33.689 6.823-48.744 19.171-57.287 46.984l-5.392 17.579c-3.731 12.176-14.642 30.537-17.206 28.953-.495-.306-.68.029-.41.745s-.843 2.721-2.472 4.456c-33.163 35.304-19.629 65.511 25.695 57.35zm-6.356-13.456c-.909-2.369.406-3.43 6.421-5.178 3.135-.911 7.69-2.51 10.124-3.553 4.766-2.043 8.061-.829 6.784 2.499-1.252 3.262-22.31 8.888-23.329 6.232zm-29.044-11.115c-2.015-5.25 18.565-24.219 24.01-22.13 3.059 1.174 1.692 3.53-4.095 7.055-5.923 3.608-10.277 7.726-14.159 13.392-2.399 3.501-4.789 4.2-5.755 1.683zm121.907-9.64c-1.684-2.03-.265-3.47 5.275-5.35 5.866-1.991 11.65-5.775 20.187-13.206 6.185-5.383 9.452-6.38 10.088-3.078 1.15 5.972-31.87 26.068-35.549 21.634zm-50.068-1.018c-2.253-2.253-1.133-3.522 5.075-5.751 8.136-2.921 15.338-7.028 20.881-11.908 4.431-3.9 7.869-4.226 7.869-.747 0 5.532-30.243 21.988-33.825 18.406zm-6.146-23.24c-2.434-2.933 16.3-16.569 23.198-16.885 6.048-.277 4.957 3.491-1.825 6.302-3.127 1.296-8.53 4.537-12.007 7.202-6.921 5.304-7.574 5.54-9.366 3.381zm-25.487-9.403c-2.261-7.124 13.673-27.131 21.608-27.131 4.625 0 3.786 3.485-1.4 5.817-5.475 2.462-7.899 5.188-11.721 13.183l-3.925 8c-1.245 2.283-3.855 2.358-4.562.131zm91.658-.331c-1.904-1.904-1.52-2.481 4.177-6.262 2.957-1.963 7.467-5.409 10.022-7.658 4.397-3.87 7.601-4.239 7.601-.876 0 2.34-16.678 15.995-19.537 15.995-.585 0-1.603-.54-2.263-1.2zm-48.475-28.409c-2.697-2.697 2.06-6.294 12.615-9.538 13.775-4.234 13.367 1.338-.46 6.284-11.48 4.106-11.34 4.069-12.156 3.254zm-13.725-22.658c0-5.339 26.721-16.184 30.035-12.191 1.481 1.785-.313 4.458-2.993 4.458-3.24 0-14.062 4.057-18.745 7.026-5.719 3.627-8.298 3.847-8.298.708zm245-101.558c0-.853-2.61-8.482-7.926-23.167-5.426-14.988-1.732-22.147 9.822-19.036 7.139 1.922 32.104 22.968 32.104 27.064 0 2.155 1.737.738 3.416-2.787 3.149-6.612 8.418-12.892 14.096-16.802l5.529-3.808 2.718 2.029c3.15 2.352 5.101 7.331 8.627 22.022 1.395 5.81 2.673 10.701 2.841 10.869s9.258-4.185 20.2-9.672 20.497-9.733 21.234-9.432l2.749 1.118c5.262 2.136 13.025-25.92 12.321-44.522-2.059-54.337-64.051-116.59-101.73-102.158-3.025 1.159-6.225 2.107-7.112 2.107-2.432.001-16.665 9.733-26.84 18.354-39.905 33.808-54.823 88.49-34.139 125.139 5.405 9.577 22.354 20.4 35.091 22.407l6.25.984c.413.064.75-.254.75-.708zm99.348-25.71c-.324-.844.761-4.107 2.411-7.25s3.539-7.402 4.198-9.465c1.24-3.88 2.982-4.733 4.913-2.406.831 1.001.69 2.591-.554 6.242-3.682 10.805-9.253 17.348-10.968 12.879zm-125.767-10.77c-6.298-8.257-9.437-22.858-5.049-23.486 1.758-.252 2.261.687 3.736 6.971 1.1 4.686 2.982 9.117 5.307 12.493 5.082 7.379 1.397 11.09-3.994 4.022zm96.851 1.988c-.77-2.007 4.268-18.189 6.15-19.75 4.26-3.535 4.793 1.257 1.244 11.179-3.273 9.15-5.971 12.278-7.394 8.571zm-55.848-8.984c-6.821-8.943-11.543-26.699-7.099-26.699 1.923 0 3.102 1.989 4.445 7.5.67 2.75 2.971 8.346 5.112 12.437 2.923 5.583 3.621 7.764 2.803 8.75-1.631 1.965-2.496 1.638-5.261-1.988zm30.74-2.298c-.74-1.928 5.436-15.094 7.44-15.864 4.179-1.604 4.216 2.798.087 10.267-4.031 7.289-6.245 8.936-7.527 5.597zm48.888-13.651c-.731-.884-.282-3.443 1.536-8.75 1.97-5.75 2.606-9.716 2.728-17 .157-9.352.197-9.5 2.591-9.5h2.432l-.088 11c-.132 16.412-5.023 29.305-9.2 24.25zM459.68 115.481c-2.061-3.39-4.286-14.123-3.599-17.366.233-1.1.694-3.688 1.024-5.75 1.45-9.057 5.226-4.979 5.111 5.521-.077 7.084.342 10.256 1.776 13.446 3.116 6.929-.505 10.411-4.313 4.149zm57.791-2.063c-1.231-4.024.7-22.293 2.391-22.615 3.325-.634 4.771 8.891 2.932 19.313-.716 4.056-4.394 6.339-5.323 3.303zm37.354-6.053c-.67-.809-.728-2.839-.166-5.75.478-2.475.889-6.582.913-9.128.051-5.435 2.055-7.938 4.639-5.794 1.3 1.079 1.472 2.535.931 7.872-1.256 12.394-3.271 16.477-6.317 12.799zm-77.865-7c-2.797-4.522-.984-27.184 2.275-28.434 3.09-1.186 3.696 1.205 2.374 9.365-.931 5.743-.989 9.121-.219 12.72 1.422 6.651-1.58 10.955-4.429 6.35zm61.402-23.5c-.297-4.263-1.511-10.623-2.699-14.134-2.362-6.983-2.157-9.116.877-9.116 2.976 0 7.075 13.645 7.075 23.552 0 11.726-4.434 11.472-5.253-.302zm-39.774-3.5c-4.174-9.196-.463-26.668 4.591-21.615 1.163 1.163 1.135 2.058-.181 5.868-1.734 5.021-1.228 11.051 1.243 14.827 1.872 2.861 1.138 5.169-1.644 5.169-1.478 0-2.639-1.23-4.009-4.25zM891.652 411.16c-1.868-2.251.062-4.088 5.743-5.47 6.594-1.603 21.57-9.216 28.72-14.599 6.327-4.764 8.81-5.275 9.293-1.916.896 6.232-39.843 26.701-43.756 21.985zm3.163-30.744c-2.252-2.252-1.202-3.639 4.05-5.347 11.789-3.835 20.127-9.048 26.645-16.657 4.628-5.403 8.914-2.141 4.391 3.342-3.893 4.719-5.286 6.115-5.286 5.298 0-.388-.881.414-1.958 1.782-2.916 3.707-21.747 12.781-26.524 12.781-.065 0-.659-.54-1.318-1.2zM70.968 203.688c-3.283-1.426-3.224-.902-3.473-30.908-.266-32.042-.648-30.579 7.98-30.63 9.533-.057 9.345-.557 8.706 23.074-.693 25.618-1.564 23.687 10.32 22.878 11.584-.789 12.632-.222 13.45 7.271.779 7.134-1.149 8.451-12.016 8.211a180.91 180.91 0 0 0-15.318.432c-4.125.333-8.466.186-9.648-.327zm62.148-1.071c-2.258-2.497-2.511-56.02-.278-58.752 1.579-1.931 41.097-1.775 42.71.169.678.817 1.048 3.679.872 6.75l-.305 5.331h-13c-14.288 0-15.5.341-15.5 4.359 0 4.521 1.165 4.889 13.826 4.368 13.972-.575 14.713-.166 13.441 7.421l-.813 4.847-5.977.836c-3.922.548-7.271.448-9.738-.29-2.068-.619-5.352-.827-7.296-.463l-3.536.663.296 5.63.296 5.63h15.5 15.5l.304 5.896c.414 8.026.277 8.1-15.107 8.129-7.258.013-16.797.399-21.197.857-7.531.783-8.117.703-10-1.379zm90 1.498c-.55-.188-3.196-.639-5.879-1.002-12.524-1.692-17.546-11.881-8.497-17.241l5.624-3.331 5.121 3.184c9.003 5.596 22.131 4.956 22.131-1.08 0-3.418-.66-3.699-11.763-5.001-14.261-1.672-14.721-1.821-19.035-6.179-18.506-18.691 10.186-41.832 36.468-29.412 17.507 8.273 9.39 21.016-8.579 13.466-9.301-3.908-16.091-3.023-16.091 2.097 0 2.966 2.432 4.025 11.642 5.07 10.395 1.179 16.369 2.794 17.067 4.614.275.718.887 1.066 1.358.775 4.64-2.868 7.284 14.01 3.396 21.679-4.682 9.237-22.536 15.933-32.963 12.362zm62.523-.972c-1.125-1.356-1.476-6.923-1.695-26.869-.152-13.837-.51-26.799-.797-28.804-.639-4.471.121-4.855 9.616-4.855 8.326 0 10.236.869 12.705 5.781 1.029 2.046 3.806 7.094 6.172 11.219 6.509 11.348 8.975 16.202 8.975 17.669 0 .732.509 1.331 1.13 1.331.768 0 .932-1.52.51-4.75-3.413-26.163-2.418-30.649 7.009-31.587 8.641-.859 8.264-2.235 8.18 29.88-.086 32.831.333 31.456-9.583 31.456-8.715 0-12.129-4.246-24.726-30.749-3.366-7.083-3.835-5.159-3.082 12.643.807 19.081 1.204 18.056-7.284 18.826-4.597.417-5.988.184-7.13-1.192zm80.353.488c-3.305-1.335-5.349-56.934-2.231-60.69 1.267-1.527 9.515-1.786 13.13-.412l2.405.914-.089 29.306-.089 29.306-2.5 1.265c-2.843 1.438-7.494 1.574-10.624.31zm373.947.346c-4.034-.891-4.191-2.062-4.466-33.234-.306-34.662-.923-32.427 8.921-32.338 8.878.08 8.723-.384 8.723 26v22.711l10.5-.318c12.733-.385 13.552.077 14.312 8.09.743 7.829-.95 8.997-12.513 8.631-4.564-.144-11.674.008-15.799.338s-8.48.384-9.677.12zm-87.27-1.798c-1.313-1.582-1.9-59.383-.625-61.447.399-.645 3.567-1.117 7.509-1.117 9.738 0 10.571 1.572 8.574 16.182-1.476 10.796 1.326 11.13 8.148.97 9.884-14.719 13.523-17.178 25.335-17.121 12.437.061 10.298 5.014-8.692 20.127-4.596 3.658-5.102 4.932-2.736 6.896.861.715 2.264 2.682 3.118 4.372s3.292 5.356 5.419 8.146 5.038 7.29 6.469 10 3.463 5.856 4.515 6.991c4.53 4.888 1.751 7.436-8.112 7.436-6.618 0-7.904-.297-9.73-2.25-3.313-3.543-9.012-13.532-10.811-18.95-1.934-5.824-3.698-6.839-6.809-3.917-1.25 1.175-2.65 1.794-3.11 1.377s-.495-.168-.078.554c.438.759.052 2.093-.916 3.163-1.409 1.557-1.564 3.115-.978 9.837.647 7.412.549 8.067-1.358 9.087-3.067 1.641-13.688 1.405-15.134-.337zm164.447-.054c-6.42-2.252-14.471-11.512-14.612-16.806-1.239-46.526-1.203-46.703 9.424-46.703 8.795 0 8.659-.329 7.708 18.602-1.255 25.017 1.003 32.398 9.914 32.398 9.008 0 10.129-3.417 9.39-28.627-.501-17.105-.369-20.091.941-21.178 1.854-1.539 10.64-2.688 14.036-1.835l2.467.619.022 22.76c.026 27.017-.4 29.314-6.488 34.954-7.505 6.953-22.154 9.55-32.802 5.815zm68.311-.169c-2.159-2.391-3.021-59.53-.929-61.623 3.248-3.25 41.218-1.512 46.106 2.11 9.371 6.945 8.76 21.135-1.087 25.214-3.75 1.553-3.71 2.959.083 2.959 13.999 0 13.275 23.851-.92 30.306-6.735 3.063-40.688 3.874-43.253 1.034zm32.189-14.724c9.973-3.18 4.245-10.861-7.763-10.408l-7.737.292-.314 4.967c-.466 7.386 4.117 8.878 15.814 5.149zm-1-24.983c3.567-1.638 4-6.302.702-7.556-4.241-1.613-14.748-1.615-15.768-.004-4.927 7.785 4.391 12.461 15.066 7.56zm-549.24-29.98c-4.892-2.816-4.748-4.043 1.437-12.254 7.799-10.353 9.569-11.225 14.382-7.085 3.153 2.713 3.138 2.757-4.567 13.186-6.398 8.659-6.655 8.8-11.252 6.153z"/>
</svg>
